<mxfile host="app.diagrams.net" agent="Mozilla/5.0 (Windows NT 10.0; Win64; x64) AppleWebKit/537.36 (KHTML, like Gecko) Chrome/141.0.0.0 Safari/537.36" version="28.2.8">
  <diagram name="Page-1" id="A7kvH-M45zC7Q89Ua6Eg">
    <mxGraphModel dx="1042" dy="574" grid="0" gridSize="10" guides="1" tooltips="1" connect="1" arrows="1" fold="1" page="1" pageScale="1" pageWidth="850" pageHeight="1100" math="0" shadow="0">
      <root>
        <mxCell id="0" />
        <mxCell id="1" parent="0" />
        <mxCell id="9pJ2wpuDpyAGOIZirBzx-27" value="" style="shape=ellipse;fillColor=#000000;strokeColor=#000000;" vertex="1" parent="1">
          <mxGeometry x="202" y="145" width="30" height="30" as="geometry" />
        </mxCell>
        <mxCell id="9pJ2wpuDpyAGOIZirBzx-28" value="Mới _tạo" style="rounded=1;whiteSpace=wrap;html=1;" vertex="1" parent="1">
          <mxGeometry x="165" y="261" width="120" height="50" as="geometry" />
        </mxCell>
        <mxCell id="9pJ2wpuDpyAGOIZirBzx-29" value="Hoạt động" style="rounded=1;whiteSpace=wrap;html=1;" vertex="1" parent="1">
          <mxGeometry x="405" y="253" width="120" height="50" as="geometry" />
        </mxCell>
        <mxCell id="9pJ2wpuDpyAGOIZirBzx-30" value="Bị khóa" style="rounded=1;whiteSpace=wrap;html=1;" vertex="1" parent="1">
          <mxGeometry x="418" y="487" width="120" height="50" as="geometry" />
        </mxCell>
        <mxCell id="9pJ2wpuDpyAGOIZirBzx-31" value="Kích hoạt lại" style="rounded=1;whiteSpace=wrap;html=1;" vertex="1" parent="1">
          <mxGeometry x="605" y="373" width="120" height="50" as="geometry" />
        </mxCell>
        <mxCell id="9pJ2wpuDpyAGOIZirBzx-32" value="" style="shape=doubleEllipse;fillColor=#000000;strokeColor=#000000;" vertex="1" parent="1">
          <mxGeometry x="355" y="407" width="30" height="30" as="geometry" />
        </mxCell>
        <mxCell id="9pJ2wpuDpyAGOIZirBzx-33" value="Tạo đơn hàng" style="endArrow=block;endFill=1;html=1;" edge="1" parent="1" source="9pJ2wpuDpyAGOIZirBzx-27" target="9pJ2wpuDpyAGOIZirBzx-28">
          <mxGeometry relative="1" as="geometry" />
        </mxCell>
        <mxCell id="9pJ2wpuDpyAGOIZirBzx-34" value="Kích hoạt tài khoản" style="endArrow=block;endFill=1;html=1;" edge="1" parent="1" source="9pJ2wpuDpyAGOIZirBzx-28" target="9pJ2wpuDpyAGOIZirBzx-29">
          <mxGeometry relative="1" as="geometry" />
        </mxCell>
        <mxCell id="9pJ2wpuDpyAGOIZirBzx-35" value="Vi phạm/Bị khóa" style="endArrow=block;endFill=1;html=1;" edge="1" parent="1" source="9pJ2wpuDpyAGOIZirBzx-29" target="9pJ2wpuDpyAGOIZirBzx-30">
          <mxGeometry relative="1" as="geometry" />
        </mxCell>
        <mxCell id="9pJ2wpuDpyAGOIZirBzx-36" value="Yêu cầu mở khóa/Duyệt lại" style="endArrow=block;endFill=1;html=1;" edge="1" parent="1" source="9pJ2wpuDpyAGOIZirBzx-30" target="9pJ2wpuDpyAGOIZirBzx-31">
          <mxGeometry relative="1" as="geometry" />
        </mxCell>
        <mxCell id="9pJ2wpuDpyAGOIZirBzx-37" value="Kích hoạt lại thành công" style="endArrow=block;endFill=1;html=1;" edge="1" parent="1" source="9pJ2wpuDpyAGOIZirBzx-31" target="9pJ2wpuDpyAGOIZirBzx-29">
          <mxGeometry relative="1" as="geometry" />
        </mxCell>
        <mxCell id="9pJ2wpuDpyAGOIZirBzx-38" value="Xóa tài khoản" style="endArrow=block;endFill=1;html=1;" edge="1" parent="1" source="9pJ2wpuDpyAGOIZirBzx-29" target="9pJ2wpuDpyAGOIZirBzx-32">
          <mxGeometry relative="1" as="geometry" />
        </mxCell>
      </root>
    </mxGraphModel>
  </diagram>
</mxfile>
